Coordinates
version=1
nRows=5
nColumns=63
inDegrees=yes

Units are S.I. units (second, meters, Newtons, ...)
If the header above contains a line with 'inDegrees', this indicates whether rotational values are in degrees (yes) or radians (no).

endheader
time	pelvis_tilt	pelvis_list	pelvis_rotation	pelvis_tx	pelvis_ty	pelvis_tz	hip_flexion_r	hip_adduction_r	hip_rotation_r	knee_angle_r	knee_angle_r_beta	ankle_angle_r	subtalar_angle_r	mtp_angle_r	hip_flexion_l	hip_adduction_l	hip_rotation_l	knee_angle_l	knee_angle_l_beta	ankle_angle_l	subtalar_angle_l	mtp_angle_l	L5_S1_Flex_Ext	L5_S1_Lat_Bending	L5_S1_axial_rotation	L4_L5_Flex_Ext	L4_L5_Lat_Bending	L4_L5_axial_rotation	L3_L4_Flex_Ext	L3_L4_Lat_Bending	L3_L4_axial_rotation	L2_L3_Flex_Ext	L2_L3_Lat_Bending	L2_L3_axial_rotation	L1_L2_Flex_Ext	L1_L2_Lat_Bending	L1_L2_axial_rotation	L1_T12_Flex_Ext	L1_T12_Lat_Bending	L1_T12_axial_rotation	Abs_r3	Abs_r2	Abs_r1	Abs_t1	Abs_t2	neck_flexion	neck_bending	neck_rotation	arm_flex_r	arm_add_r	arm_rot_r	elbow_flex_r	pro_sup_r	wrist_flex_r	wrist_dev_r	arm_flex_l	arm_add_l	arm_rot_l	elbow_flex_l	pro_sup_l	wrist_flex_l	wrist_dev_l
      0.00000000	      0.97310294	     -5.40012170	    100.14866075	      0.25090906	      0.69681025	      0.88157128	      7.85777234	      2.19365879	     -7.77735927	     11.26798667	      0.19666347	     27.86416484	     -3.07149582	      0.00000000	      8.27741870	      0.36034189	     -1.01603960	     11.34748983	      0.19805106	     26.78715317	      0.70233893	      0.00000000	     -0.04927191	      0.29904246	     -0.82003005	     -0.09150286	      0.39772647	     -0.87128192	     -0.08094882	      0.72709183	     -0.87128192	     -0.05631287	      0.72709183	     -0.71752629	     -0.04575390	      0.60980738	     -0.66627441	     -0.02815397	      0.46321676	     -0.61502253	     -0.35194432	      3.38282807	     -4.56076110	      0.00000000	      0.00000000	     16.93224195	     -2.09956463	     -2.57038553	     10.45647079	    -24.22956480	     53.29193025	     71.36952865	     86.15090509	     12.84676086	      3.18559492	      6.93503487	    -25.37208338	     48.28230729	     74.98262239	     71.40283886	     13.15300955	      7.75011455
      0.02222222	      0.76401837	     -4.70735071	     99.54558150	      0.25348146	      0.69769348	      0.87597457	      6.77398525	      2.32412786	     -8.02836371	     11.39126227	      0.19881503	     28.02644666	     -2.90551952	      0.00000000	      6.91706858	      0.26661608	     -0.69828781	     10.73711172	      0.18739795	     27.22198201	      0.40786995	      0.00000000	     -0.04325811	      0.26170826	     -0.79411023	     -0.08033463	      0.34807198	     -0.84374212	     -0.07106875	      0.63631746	     -0.84374212	     -0.04943969	      0.63631746	     -0.69484645	     -0.04016948	      0.53367548	     -0.64521456	     -0.02471768	      0.40538609	     -0.59558267	     -0.30898834	      2.96049614	     -4.41660286	      0.00000000	      0.00000000	     14.27601507	     -2.42814507	     -2.08000706	      9.62776567	    -23.45996571	     52.79446338	     70.76114516	     84.90522521	     12.40964747	      3.08235079	      6.49972822	    -25.86502092	     48.56905528	     74.97076738	     71.66021857	     13.14603403	      9.16989100
      0.04444444	      0.21521463	     -4.20651062	     98.71611341	      0.25543876	      0.69851641	      0.87089450	      5.72391614	      1.84656208	     -9.89002202	     11.22151860	      0.19585245	     28.57390262	      0.22856194	      0.00000000	      5.18513266	      0.91876618	      2.53536915	      8.93810315	      0.15599933	     25.95513255	     -4.62974974	      0.00000000	     -0.04028127	      0.17437793	     -0.67463610	     -0.07480635	      0.23192265	     -0.71680086	     -0.06617810	      0.42398251	     -0.71680086	     -0.04603747	      0.42398251	     -0.59030659	     -0.03740519	      0.35559148	     -0.54814183	     -0.02301672	      0.27011142	     -0.50597708	     -0.28772510	      1.97259806	     -3.75212360	      0.00000000	      0.00000000	     12.75976697	     -2.06758695	     -2.50761076	      9.56040255	    -23.19042067	     54.20943881	     70.42951859	     79.15374006	     10.44456914	      3.78982911	      5.85094381	    -26.20918605	     48.29642340	     75.72453292	     69.13589983	     12.25899792	     14.89201873
      0.06666667	      0.15469402	     -3.89520118	     98.48917964	      0.25698356	      0.69891149	      0.86765730	      5.16494662	      1.96896035	     -9.98820534	     11.24794743	      0.19631372	     28.47688127	      0.24031164	      0.00000000	      4.50152593	      0.81867818	      2.67805974	      8.56197642	      0.14943468	     26.22540448	     -4.69267039	      0.00000000	     -0.03617370	      0.14622070	     -0.62632360	     -0.06717818	      0.19447353	     -0.66546883	     -0.05942977	      0.35552100	     -0.66546883	     -0.04134292	      0.35552100	     -0.54803315	     -0.03359090	      0.29817325	     -0.50888793	     -0.02066965	      0.22649586	     -0.46974270	     -0.25838514	      1.65407777	     -3.48342397	      0.00000000	      0.00000000	     11.68244563	     -2.02766647	     -2.71472177	      9.34945688	    -22.91061475	     54.37666491	     70.18661761	     78.74823322	     10.24282786	      3.87107946	      5.64640619	    -26.57501274	     48.56541888	     75.82391479	     69.14923873	     12.26576458	     15.42833234
      0.08888889	     -0.17105338	     -3.67781434	     98.04949741	      0.25850994	      0.69935117	      0.86499767	      4.65518416	      1.82438897	     -9.36873184	     11.10225640	      0.19377093	     28.25599604	     -0.10811538	      0.00000000	      3.71290191	      1.03713554	      2.45559729	      7.78374772	      0.13585203	     25.93980451	     -4.88194699	      0.00000000	     -0.04012732	      0.07645222	     -0.48978452	     -0.07452045	      0.10168145	     -0.52039605	     -0.06592518	      0.18588592	     -0.52039605	     -0.04586151	      0.18588592	     -0.42856146	     -0.03726223	      0.15590136	     -0.39794992	     -0.02292875	      0.11842448	     -0.36733839	     -0.28662544	      0.86484275	     -2.72403457	      0.00000000	      0.00000000	     11.23328933	     -1.50652576	     -3.81951248	      9.53911519	    -22.82406790	     55.64058105	     70.01165283	     75.23312479	      8.77675035	      4.05470247	      5.65253805	    -27.00482331	     49.00988443	     76.26116927	     67.65234249	     11.44385915	     17.78284704
